# AST/ASF file generated using VICON BodyLanguage
# -----------------------------------------------
:version 1.10
:name VICON
:units
  mass 1.0
  length 0.45
  angle deg
:documentation
   .ast/.asf automatically generated from VICON data using
   VICON BodyBuilder and BodyLanguage model FoxedUp or BRILLIANT.MOD
:root
   order TX TY TZ RX RY RZ
   axis XYZ
   position 0 0 0  
   orientation 0 -0 0 
:bonedata
  begin
     id 1 
     name lhipjoint
     direction 0.515797 -0.759363 0.396637 
     length 2.47888 
     axis 0 -0 0  XYZ
  end
  begin
     id 2 
     name lfemur
     direction 0.34202 -0.939693 0  
     length 6.81885  
     axis 0 -0 20  XYZ
    dof rx ry rz
    limits (-160.0 20.0)
           (-70.0 70.0)
           (-60.0 70.0)
  end
  begin
     id 3 
     name ltibia
     direction 0.342037 -0.939687 0   
     length 7.89258   
     axis 0 -0 20   XYZ
    dof rx
    limits (-10.0 170.0)
  end
  begin
     id 4 
     name lfoot
     direction 0.173497 -0.476678 0.861787   
     length 2.51543   
     axis -90 -1.13533e-015 20   XYZ
    dof rx rz
    limits (-45.0 90.0)
           (-70.0 20.0)
  end
  begin
     id 5 
     name ltoes
     direction 1.53564e-011 -4.21897e-011 1   
     length 1.21388   
     axis -90 -1.13533e-015 20   XYZ
    dof rx
    limits (-90.0 20.0)
  end
  begin
     id 6 
     name rhipjoint
     direction -0.489454 -0.772941 0.403729   
     length 2.43534  
     axis 0 -0 0  XYZ 
  end
  begin
     id 7 
     name rfemur
     direction -0.34202 -0.939693 0   
     length 7.10357   
     axis 0 -0 -20   XYZ
    dof rx ry rz
    limits (-160.0 20.0)
           (-70.0 70.0)
           (-70.0 60.0)
  end
  begin
     id 8 
     name rtibia
     direction -0.34202 -0.939693 0   
     length 9.16127   
     axis 0 -0 -20   XYZ
    dof rx
    limits (-10.0 170.0)
 end
 begin
     id 9 
     name rfoot
     direction -0.270974 -0.748671 0.605033   
     length 1.74894  
     axis -90 1.13533e-015 -20   XYZ
    dof rx rz
    limits (-45.0 90.0)
           (-20.0 70.0)
  end
  begin
     id 10 
     name rtoes
     direction -1.53557e-011 -4.21759e-011 1   
     length 0.787585   
     axis -90 1.13533e-015 -20   XYZ
    dof rx
    limits (-90.0 20.0)
  end
  begin
     id 11 
     name lowerback
     direction -0.0140249 0.999561 0.0260968   
     length 2.16963   
     axis 0 -0 0   XYZ
    dof rx ry rz
    limits (-20.0 45.0)
           (-30.0 30.0)
           (-30.0 30.0)
  end
  begin
     id 12 
     name upperback
     direction 0.00860018 0.999959 -0.002711   
     length 2.1726   
     axis 0 -0 0   XYZ
    dof rx ry rz
    limits (-20.0 45.0)
           (-30.0 30.0)
           (-30.0 30.0)
  end
  begin
     id 13 
     name thorax
     direction 0.015211 0.999782 -0.0143191   
     length 2.17061   
     axis 0 -0 0   XYZ
    dof rx ry rz
    limits (-20.0 45.0)
           (-30.0 30.0)
           (-30.0 30.0)
  end
  begin
     id 14 
     name lowerneck
     direction -0.0140143 0.999447 0.030145   
     length 2.26749   
     axis 0 -0 0   XYZ
    dof rx ry rz
    limits (-20.0 45.0)
           (-30.0 30.0)
           (-30.0 30.0)
  end
  begin
     id 15 
     name upperneck
     direction 0.118062 0.961438 -0.248392   
     length 2.22728   
     axis 0 -0 0   XYZ
    dof rx ry rz
    limits (-20.0 45.0)
           (-30.0 30.0)
           (-30.0 30.0)
  end
  begin
     id 16
     name head
     direction 0.0431885 0.9954 -0.085514  
     length 2.28786  
     axis 0 -0 0   XYZ
    dof rx ry rz
    limits (-20.0 45.0)
           (-30.0 30.0)
           (-30.0 30.0)
  end
  begin
     id 17 
     name lclavicle
     direction 0.912126 0.409548 0.0172323  
     length 4.31571  
     axis 0 -0 0   XYZ
    dof ry rz
    limits (-20.0 10.0)
           (0.0 20.0)
  end
  begin
     id 18 
     name lhumerus
     direction 1 -4.48977e-011 1.93091e-027   
     length 5.13658   
     axis 180 -30 -90   XYZ
    dof rx ry rz
    limits (-60.0 90.0)
           (-90.0 90.0)
           (-90.0 90.0)
  end
  begin
     id 19
     name lradius
     direction 1 -4.48916e-011 6.84018e-027   
     length 3.22473   
     axis 180 -30 -90   XYZ
    dof rx
    limits (-10.0 170.0)
  end
  begin
     id 20
     name lwrist
     direction 1 -4.48987e-011 7.01981e-027   
     length 1.61236   
     axis -4.37994e-015 90 90   XYZ
    dof ry
    limits (-180.0 0.0)
 end
  begin
     id 21 
     name lhand
     direction 1 -4.49037e-011 1.40335e-026   
     length 0.936406   
     axis -8.96029e-015 90 90   XYZ
    dof rx rz
    limits (-90.0 90.0)
           (-45.0 45.0)
  end
  begin
     id 22 
     name lfingers
     direction 1 -4.48886e-011 2.8104e-026   
     length 0.754955   
     axis -1.79203e-014 90 90   XYZ
    dof rx
    limits (0.0 90.0)
  end
  begin
     id 23
     name lthumb
     direction 0.707107 -6.34937e-011 0.707107   
     length 1.08397   
     axis -90 45 -4.48555e-014   XYZ
    dof rx rz
    limits (-45.0 45.0)
           (-45.0 45.0)
  end
  begin
     id 24 
     name rclavicle
     direction -0.947962 0.317997 0.0156638   
     length 4.86918  
     axis 0 -0 0   XYZ 
    dof ry rz
    limits (-10.0 20.0)
           (-20.0 0.0)
  end
  begin
     id 25 
     name rhumerus
     direction -1 -4.48951e-011 2.80534e-018  
     length 5.60911   
     axis 180 30 90   XYZ
    dof rx ry rz
    limits (-90.0 60.0)
           (-90.0 90.0)
           (-90.0 90.0)
  end
  begin
     id 26 
     name rradius
     direction -1 -4.4898e-011 2.11315e-027   
     length 3.38704   
     axis 180 30 90   XYZ
    dof rx
    limits (-10.0 170.0)
  end
  begin
     id 27 
     name rwrist
     direction -1 -4.48933e-011 7.02314e-027   
     length 1.69352   
     axis -4.37994e-015 -90 -90   XYZ
    dof ry
    limits (-180.0 0.0)
  end
  begin
     id 28
     name rhand
     direction -1 -4.48937e-011 1.40458e-026   
     length 0.755878   
     axis -8.96029e-015 -90 -90   XYZ
    dof rx rz
    limits (-90.0 90.0)
           (-45.0 45.0)
  end
  begin
     id 29
     name rfingers
     direction -1 -4.4901e-011 2.80737e-026   
     length 0.609409   
     axis -1.79203e-014 -90 -90   XYZ
    dof rx
    limits (0.0 90.0)
  end
  begin
     id 30
     name rthumb
     direction -0.707107 -6.34968e-011 0.707107   
     length 0.874992   
     axis -90 -45 4.48555e-014   XYZ
    dof rx rz
    limits (-45.0 45.0)
           (-45.0 45.0)
  end
:hierarchy
  begin
    root lhipjoint rhipjoint lowerback
    lhipjoint lfemur
    lfemur ltibia
    ltibia lfoot
    lfoot ltoes
    rhipjoint rfemur
    rfemur rtibia
    rtibia rfoot
    rfoot rtoes
    lowerback upperback
    upperback thorax
    thorax lowerneck lclavicle rclavicle
    lowerneck upperneck
    upperneck head
    lclavicle lhumerus
    lhumerus lradius
    lradius lwrist
    lwrist lhand lthumb
    lhand lfingers
    rclavicle rhumerus
    rhumerus rradius
    rradius rwrist
    rwrist rhand rthumb
    rhand rfingers
  end

#!OML:ASF C:\ViconDB\ViconDB\414\Spring2016\041811\Spring2016.ASF
:FULLY-SPECIFIED
:DEGREES
122
root 10.3937 17.8651 -3.37118 -180.665 -4.87315 -177.227
lowerback 2.31196 0.129543 1.19903
upperback 1.38501 0.10782 2.24572
thorax 0.121682 0.0138871 1.62617
lowerneck -10.0662 -3.01773 -10.0647
upperneck 17.8436 -6.17702 14.5806
head 7.88352 -2.7354 5.91723
rclavicle 4.22417e-015 -1.98785e-014
rhumerus -42.2314 -20.8373 -82.0373
rradius 33.8034
rwrist 40.1331
rhand -36.1418 -14.7141
rfingers 7.12502
rthumb -9.2466 -44.4913
lclavicle 4.22417e-015 -1.98785e-014
lhumerus -37.6308 -4.3479 93.2017
lradius 25.9004
lwrist -30.8001
lhand -28.1456 16.2177
lfingers 7.12502
lthumb -1.52653 46.192
rfemur 173.79 43.4817 -154.978
rtibia 34.025
rfoot -46.2694 -53.3688
rtoes 4.77083e-015
lfemur 7.33539 -3.66361 -15.5879
ltibia 34.2949
lfoot -11.488 -2.10433
ltoes -1.46306e-013
123
root 10.4333 17.8803 -3.48259 -180.711 -4.80859 -177.065
lowerback 2.31553 0.129848 1.35936
upperback 1.43676 0.102579 2.32774
thorax 0.173238 0.00873595 1.62062
lowerneck -10.2082 -3.06319 -10.0574
upperneck 17.9238 -6.21245 14.4745
head 7.93782 -2.75096 5.87621
rclavicle -4.09993e-015 2.62396e-014
rhumerus -41.9891 -20.6978 -82.185
rradius 33.7685
rwrist 40.3231
rhand -36.2337 -14.6006
rfingers 7.12502
rthumb -9.33533 -44.3739
lclavicle -4.09993e-015 2.62396e-014
lhumerus -37.531 -3.73324 92.7434
lradius 25.2126
lwrist -31.6729
lhand -28.0097 16.3294
lfingers 7.12502
lthumb -1.39526 46.3046
rfemur 173.357 44.6995 -154.708
rtibia 34.0252
rfoot -48.029 -53.041
rtoes 7.07673e-014
lfemur 5.66741 -2.6283 -14.7743
ltibia 37.2288
lfoot -9.28836 -2.65457
ltoes 9.54166e-014
124
root 10.4623 17.8955 -3.6059 -180.798 -4.48156 -176.849
lowerback 2.20421 0.232172 1.73469
upperback 1.55448 0.231608 2.32148
thorax 0.355893 0.073194 1.40152
lowerneck -10.3825 -3.12132 -10.0132
upperneck 17.9582 -6.31582 14.5606
head 7.99773 -2.7841 5.88678
rclavicle 1.10822e-014 3.10104e-014
rhumerus -41.6702 -20.5537 -82.5578
rradius 33.8176
rwrist 39.8403
rhand -36.2126 -14.632
rfingers 7.12502
rthumb -9.31492 -44.4062
lclavicle 1.10822e-014 3.10104e-014
lhumerus -37.3762 -3.06985 92.1234
lradius 24.521
lwrist -32.6733
lhand -27.9262 16.1384
lfingers 7.12502
lthumb -1.31466 46.1141
rfemur 172.907 46.1766 -154.38
rtibia 33.9796
rfoot -50.4657 -52.7358
rtoes -9.46215e-014
lfemur 4.11708 -1.62114 -14.0511
ltibia 40.1534
lfoot -7.21052 -2.80631
ltoes -1.27222e-013
125
root 10.4918 17.9088 -3.71994 -180.855 -4.36481 -176.746
lowerback 2.19225 0.232442 1.9291
upperback 1.6141 0.227953 2.33178
thorax 0.424822 0.0710254 1.30339
lowerneck -10.4098 -3.14511 -10.101
upperneck 17.9147 -6.37909 14.7703
head 8.00688 -2.80577 5.96751
rclavicle -1.23992e-014 -1.47101e-014
rhumerus -41.3948 -20.2425 -82.8982
rradius 33.8904
rwrist 39.5665
rhand -36.382 -14.8422
rfingers 7.12502
rthumb -9.47839 -44.609
lclavicle -1.23992e-014 -1.47101e-014
lhumerus -37.3597 -2.01799 91.3383
lradius 23.5917
lwrist -35.8738
lhand -28.1659 16.4295
lfingers 7.12502
lthumb -1.54617 46.4036
rfemur 172.503 47.8656 -154.179
rtibia 33.9408
rfoot -52.8586 -52.4272
rtoes 1.00187e-013
lfemur 2.4748 -0.841208 -13.4793
ltibia 43.0762
lfoot -5.23348 -2.75218
ltoes 1.94014e-013
126
root 10.5247 17.9207 -3.82598 -180.958 -4.27662 -176.402
lowerback 2.26251 0.292514 2.34268
upperback 1.70583 0.301417 2.4101
thorax 0.481625 0.10573 1.1509
lowerneck -10.5024 -3.23892 -10.1127
upperneck 17.7965 -6.50237 14.8751
head 8.0074 -2.85144 5.98906
rclavicle -2.31087e-015 -2.38542e-014
rhumerus -41.1086 -20.1823 -83.0919
rradius 33.9858
rwrist 39.5253
rhand -36.364 -14.5509
rfingers 7.12502
rthumb -9.46098 -44.3185
lclavicle -2.31087e-015 -2.38542e-014
lhumerus -37.2131 -1.27682 90.73
lradius 22.9774
lwrist -36.9343
lhand -28.1135 16.2282
lfingers 7.12502
lthumb -1.49553 46.2027
rfemur 172.105 49.4782 -153.752
rtibia 33.8592
rfoot -55.1725 -52.0085
rtoes 1.31993e-013
lfemur 0.793184 0.0251192 -12.5871
ltibia 45.9858
lfoot -3.29145 -2.69653
ltoes 4.19833e-013
127
root 10.5567 17.9322 -3.92897 -181.094 -4.286 -176.204
lowerback 2.43811 0.283553 2.57701
upperback 1.79224 0.287446 2.4539
thorax 0.473653 0.0963376 1.06461
lowerneck -10.5314 -3.26775 -10.2207
upperneck 17.6084 -6.56207 15.1827
head 7.97394 -2.86392 6.10469
rclavicle -9.93923e-016 -1.98785e-015
rhumerus -40.7788 -19.8315 -83.4287
rradius 34.1284
rwrist 39.2552
rhand -36.1367 -14.9665
rfingers 7.12502
rthumb -9.24167 -44.744
lclavicle -9.93923e-016 -1.98785e-015
lhumerus -37.1508 -0.693427 90.2489
lradius 22.5554
lwrist -37.2663
lhand -28.0513 16.1688
lfingers 7.12502
lthumb -1.43542 46.1437
rfemur 171.596 50.855 -153.646
rtibia 33.7686
rfoot -57.0315 -51.5996
rtoes 2.22639e-014
lfemur -0.873567 0.764843 -11.9054
ltibia 48.8256
lfoot -1.78531 -2.5843
ltoes 2.48083e-013
128
root 10.5908 17.9454 -4.03097 -181.23 -4.35391 -176.034
lowerback 2.60185 0.269885 2.69876
upperback 1.87807 0.264065 2.53734
thorax 0.470807 0.0806566 1.08233
lowerneck -10.5851 -3.35225 -10.1881
upperneck 17.4351 -6.62966 15.1324
head 7.93509 -2.89029 6.06891
rclavicle 2.43014e-014 -1.59028e-015
rhumerus -40.4599 -19.3045 -83.7366
rradius 34.3612
rwrist 38.8372
rhand -35.8877 -14.5403
rfingers 7.12502
rthumb -9.00146 -44.3283
lclavicle 2.43014e-014 -1.59028e-015
lhumerus -37.1877 -0.2408 89.9306
lradius 22.284
lwrist -37.3552
lhand -27.965 16.124
lfingers 7.12502
lthumb -1.3521 46.0995
rfemur 171.074 52.1814 -153.634
rtibia 33.6205
rfoot -58.6392 -51.1499
rtoes 5.80451e-014
lfemur -2.57098 1.38866 -11.2901
ltibia 51.5678
lfoot -1.33756 -2.53883
ltoes 2.63986e-013
129
root 10.6228 17.9571 -4.13297 -181.448 -4.40481 -175.849
lowerback 2.8412 0.291988 2.91163
upperback 1.99293 0.29274 2.56709
thorax 0.45656 0.0920337 0.992736
lowerneck -10.5851 -3.38229 -10.2804
upperneck 17.2379 -6.68406 15.4031
head 7.89139 -2.90303 6.16932
rclavicle -1.98785e-015 4.37326e-015
rhumerus -40.1193 -18.8182 -84.1522
rradius 34.5946
rwrist 38.3117
rhand -35.6978 -14.6778
rfingers 7.12502
rthumb -8.81814 -44.4735
lclavicle -1.98785e-015 4.37326e-015
lhumerus -37.1187 0.518442 89.3981
lradius 21.9052
lwrist -37.8317
lhand -27.8457 16.1027
lfingers 7.12502
lthumb -1.23692 46.0789
rfemur 170.399 53.6824 -153.742
rtibia 33.4783
rfoot -60.5163 -50.6453
rtoes -2.70347e-014
lfemur -4.15868 2.05838 -10.6972
ltibia 54.1046
lfoot -1.67841 -2.24929
ltoes -7.63333e-014
